<svg id="Layer_1" enable-background="new 0 0 512 512" height="512" viewBox="0 0 512 512" width="512" xmlns="http://www.w3.org/2000/svg"><g><path d="m99.995 336.814c29.251 56.351 88.128 94.853 156.005 94.853 67.875 0 126.751-38.5 156.003-94.849l18.039-104.719c-11.662-85.71-85.132-151.766-174.042-151.766-88.908 0-162.377 66.053-174.041 151.76z" fill="#008cfa"/><g fill="#005fcd"><path d="m412.003 336.818 18.039-104.719c-11.662-85.71-85.132-151.766-174.042-151.766-.001 0-.002 0-.003 0v351.333h.003c67.875.001 126.751-38.499 156.003-94.848z"/><path d="m430.042 232.098-34.901-34.904c-2.813-2.813-6.628-4.395-10.606-4.395-6.483 0-10.292 4.078-10.607 4.394l-21.528 21.527-21.527-21.526c-5.856-5.858-15.361-5.854-21.213 0l-21.526 21.526-21.527-21.526c-5.856-5.858-15.36-5.853-21.213 0l-21.526 21.527-21.527-21.527c-5.858-5.859-15.36-5.853-21.213 0l-21.528 21.527-21.527-21.527c-5.857-5.858-15.354-5.858-21.213 0l-34.901 34.9c-1.064 7.818-1.626 15.796-1.626 23.906 0 29.141 7.104 56.621 19.662 80.814l27.47-27.468 21.528 21.527c5.857 5.857 15.355 5.857 21.213 0l21.527-21.526 21.527 21.526c5.857 5.857 15.355 5.857 21.213 0l21.527-21.526 21.527 21.526c5.857 5.857 15.355 5.857 21.213 0l21.526-21.526 21.527 21.526c5.86 5.86 15.356 5.857 21.213 0l21.526-21.525 27.47 27.47c12.56-24.194 19.664-51.675 19.664-80.818.001-8.109-.561-16.085-1.624-23.902z"/><path d="m186.092 94.844h139.81l69.237-69.237c4.721-4.721 5.801-12.059 2.443-18.007-2.709-4.799-7.958-7.6-13.468-7.6h-256.284c-5.139 0-10.073 2.436-12.886 6.736-3.981 6.085-3.036 13.918 1.916 18.87z"/><path d="m368.467 512h-224.934c-6.957 0-13-4.783-14.599-11.554s1.668-13.751 7.89-16.862c26.305-13.153 45.382-36.926 52.683-64.977h132.977c7.276 27.955 26.248 51.661 52.413 64.841 5.359 2.546 8.888 8.143 8.542 14.381-.44 7.949-7.011 14.171-14.972 14.171z"/></g><path d="m277.527 330.873c5.857 5.857 15.355 5.857 21.213 0l21.526-21.526 21.527 21.526c5.86 5.86 15.356 5.857 21.213 0l21.526-21.525 27.47 27.47c12.56-24.194 19.664-51.675 19.664-80.818 0-8.109-.562-16.085-1.625-23.902l-34.901-34.904c-2.813-2.813-6.628-4.395-10.606-4.395-6.483 0-10.292 4.078-10.607 4.394l-21.527 21.527-21.527-21.526c-5.856-5.858-15.361-5.854-21.213 0l-21.526 21.526-21.527-21.526c-2.928-2.93-6.769-4.393-10.609-4.392v116.548l.003-.003z" fill="#0032a0"/><path d="m395.139 25.606c4.721-4.721 5.801-12.059 2.443-18.007-2.709-4.798-7.958-7.599-13.468-7.599h-128.117v94.844h69.905z" fill="#0032a0"/><path d="m383.439 497.829c.346-6.238-3.183-11.835-8.542-14.381-26.165-13.18-45.137-36.886-52.413-64.841h-66.487v93.393h112.47c7.961 0 14.532-6.222 14.972-14.171z" fill="#0032a0"/><path d="m384.533 512h-257.066c-8.284 0-15-6.716-15-15s6.716-15 15-15h257.066c8.284 0 15 6.716 15 15s-6.716 15-15 15z" fill="#008cfa"/><path d="m399.533 497c0-8.284-6.716-15-15-15h-128.536v30h128.536c8.284 0 15-6.716 15-15z" fill="#005fcd"/></g></svg>